<svg width="43" height="25" viewBox="0 0 43 25" fill="none" xmlns="http://www.w3.org/2000/svg">
<path fill-rule="evenodd" clip-rule="evenodd" d="M29.8086 24.8405H30.4139L31.0742 24.7857L31.6794 24.676L32.2847 24.5663L32.8899 24.4566L33.4952 24.2921L34.0454 24.0727L34.5957 23.8533L35.1459 23.6339L35.6962 23.3597L36.2464 23.0306L36.7416 22.7564L37.2368 22.3724L37.677 22.0434L38.1172 21.6046L38.5574 21.2206L38.9976 20.7819L39.3828 20.3431L39.7129 19.8495L40.0981 19.4107L40.3732 18.8622L40.7033 18.3686L40.9785 17.8201L41.1986 17.2717L41.4187 16.7232L41.6387 16.1747L41.8038 15.5714L41.9689 14.9681L42.0789 14.3648L42.134 13.7615L42.189 13.1033V12.5V11.8418L42.134 11.2385L42.0789 10.5803L41.9689 9.97702L41.8038 9.42855L41.6387 8.82524L41.4187 8.22192L41.1986 7.67345L40.9785 7.12498L40.7033 6.63136L40.3732 6.08289L40.0981 5.58927L39.7129 5.09565L39.3828 4.65687L38.9976 4.2181L38.5574 3.77932L38.1172 3.34055L37.677 2.95662L37.2368 2.62754L36.7416 2.24361L36.2464 1.96937L35.6962 1.64029L35.1459 1.36606L34.5957 1.14667L34.0454 0.927281L33.4952 0.707893L32.8899 0.543352L32.2847 0.433659L31.6794 0.323964L31.0742 0.21427L30.4139 0.159424H29.8086H29.1483L28.5431 0.21427L27.8828 0.323964L27.2775 0.433659L26.6722 0.543352L26.122 0.707893L25.5167 0.927281L24.9665 1.14667L24.4163 1.36606L23.921 1.64029L23.3708 1.96937L22.8756 2.24361L22.3804 2.62754L21.9402 2.95662L21.5 3.34055L21.0598 3.77932L20.6196 4.2181L20.2344 4.65687L19.9043 5.09565L19.5191 5.58927L19.244 6.08289L18.9139 6.63136L18.6387 7.12498L18.4187 7.67345L18.1986 8.22192L17.9785 8.82524L17.8134 9.42855L17.7033 9.97702L17.5933 10.5803L17.4832 11.2385L17.4282 11.8418V12.5V13.1033L17.4832 13.7615L17.5933 14.3648L17.7033 14.9681L17.8134 15.5714L17.9785 16.1747L18.1986 16.7232L18.4187 17.2717L18.6387 17.8201L18.9139 18.3686L19.244 18.8622L19.5191 19.4107L19.9043 19.8495L20.2344 20.3431L20.6196 20.7819L21.0598 21.2206L21.5 21.6046L21.9402 22.0434L22.3804 22.3724L22.8756 22.7564L23.3708 23.0306L23.921 23.3597L24.4163 23.6339L24.9665 23.8533L25.5167 24.0727L26.122 24.2921L26.6722 24.4566L27.2775 24.5663L27.8828 24.676L28.5431 24.7857L29.1483 24.8405H29.8086Z" fill="#FBB231"/>
<path fill-rule="evenodd" clip-rule="evenodd" d="M13.2464 24.8405H13.8517L14.512 24.7857L15.1173 24.676L15.7225 24.5663L16.3278 24.4566L16.878 24.2921L17.4833 24.0727L18.0335 23.8533L18.5838 23.6339L19.134 23.3597L19.6292 23.0306L20.1244 22.7564L20.6196 22.3724L21.1149 22.0434L21.5551 21.6046L21.9402 21.2206L22.3804 20.7819L22.7656 20.3431L23.1507 19.8495L23.4809 19.4107L23.811 18.8622L24.0862 18.3686L24.3613 17.8201L24.6364 17.2717L24.8565 16.7232L25.0216 16.1747L25.1866 15.5714L25.3517 14.9681L25.4618 14.3648L25.5168 13.7615L25.5718 13.1033V12.5V11.8418L25.5168 11.2385L25.4618 10.5803L25.3517 9.97702L25.1866 9.42855L25.0216 8.82524L24.8565 8.22192L24.6364 7.67345L24.3613 7.12498L24.0862 6.63136L23.811 6.08289L23.4809 5.58927L23.1507 5.09565L22.7656 4.65687L22.3804 4.2181L21.9402 3.77932L21.5551 3.34055L21.1149 2.95662L20.6196 2.62754L20.1244 2.24361L19.6292 1.96937L19.134 1.64029L18.5838 1.36606L18.0335 1.14667L17.4833 0.927281L16.878 0.707893L16.3278 0.543352L15.7225 0.433659L15.1173 0.323964L14.512 0.21427L13.8517 0.159424H13.2464H12.5862L11.9809 0.21427L11.3206 0.323964L10.7153 0.433659L10.1101 0.543352L9.55984 0.707893L8.95458 0.927281L8.40434 1.14667L7.8541 1.36606L7.30386 1.64029L6.80864 1.96937L6.31343 2.24361L5.81821 2.62754L5.323 2.95662L4.8828 3.34055L4.44261 3.77932L4.05745 4.2181L3.67228 4.65687L3.28711 5.09565L2.95697 5.58927L2.62682 6.08289L2.29668 6.63136L2.02156 7.12498L1.80147 7.67345L1.58137 8.22192L1.36127 8.82524L1.1962 9.42855L1.08615 9.97702L0.976106 10.5803L0.866059 11.2385L0.811035 11.8418V12.5V13.1033L0.866059 13.7615L0.976106 14.3648L1.08615 14.9681L1.1962 15.5714L1.36127 16.1747L1.58137 16.7232L1.80147 17.2717L2.02156 17.8201L2.29668 18.3686L2.62682 18.8622L2.95697 19.4107L3.28711 19.8495L3.67228 20.3431L4.05745 20.7819L4.44261 21.2206L4.8828 21.6046L5.323 22.0434L5.81821 22.3724L6.31343 22.7564L6.80864 23.0306L7.30386 23.3597L7.8541 23.6339L8.40434 23.8533L8.95458 24.0727L9.55984 24.2921L10.1101 24.4566L10.7153 24.5663L11.3206 24.676L11.9809 24.7857L12.5862 24.8405H13.2464Z" fill="#EC1C2E"/>
<path fill-rule="evenodd" clip-rule="evenodd" d="M20.0693 4.87627H26.6172V4.21811H20.6196L20.0693 4.87627Z" fill="#FBB231"/>
<path fill-rule="evenodd" clip-rule="evenodd" d="M19.0789 6.35714H26.6171V5.69897H19.464L19.0789 6.35714Z" fill="#FBB231"/>
<path fill-rule="evenodd" clip-rule="evenodd" d="M18.3638 7.89285H26.6174V7.17984H18.6389L18.3638 7.89285Z" fill="#FBB231"/>
<path fill-rule="evenodd" clip-rule="evenodd" d="M17.8135 9.37371H26.6173V8.66071H18.0336L17.8135 9.37371Z" fill="#FBB231"/>
<path fill-rule="evenodd" clip-rule="evenodd" d="M18.1437 16.5586H26.6724V15.9005H17.9236L18.1437 16.5586Z" fill="#FBB231"/>
<path fill-rule="evenodd" clip-rule="evenodd" d="M18.7488 18.0395H26.6723V17.3813H18.4187L18.7488 18.0395Z" fill="#FBB231"/>
<path fill-rule="evenodd" clip-rule="evenodd" d="M19.6293 19.5204H26.6724V18.8622H19.2441L19.6293 19.5204Z" fill="#FBB231"/>
<path fill-rule="evenodd" clip-rule="evenodd" d="M20.8398 21.0013H26.6723V20.3431H20.2896L20.8398 21.0013Z" fill="#FBB231"/>
<path fill-rule="evenodd" clip-rule="evenodd" d="M17.5383 10.8546H26.6173V10.1964H17.6484L17.5383 10.8546Z" fill="#FBB231"/>
<path fill-rule="evenodd" clip-rule="evenodd" d="M23.0957 15.0778H26.5622V14.4196H23.2058L23.0957 15.0778Z" fill="#FBB231"/>
<path fill-rule="evenodd" clip-rule="evenodd" d="M23.3708 13.5969H26.5622V12.9388H23.4809L23.3708 13.5969Z" fill="#FBB231"/>
<path fill-rule="evenodd" clip-rule="evenodd" d="M17.3181 12.9388H18.1985V13.5969H17.3731L17.3181 12.9388Z" fill="#FBB231"/>
<path fill-rule="evenodd" clip-rule="evenodd" d="M15.6124 12.1161H15.5573L15.5023 12.0612H15.4473H15.3923H15.3372H15.2822H15.2272H15.1722L15.1171 12.0064H15.0621H15.0071H14.897H14.787H14.732H14.6219L14.5119 12.0612H14.4018H14.3468H14.2368L14.1817 12.1161H14.1267L14.0717 12.1709L14.0167 12.2258V12.2806H13.9616V12.3355V12.3903V12.4451V12.5V12.5548L14.0167 12.6097L14.0717 12.6645L14.1267 12.7194L14.2368 12.8291L14.3468 12.8839H14.4568L14.6219 12.9388L14.732 12.9936L14.897 13.0485L15.0071 13.1033L15.1171 13.1582L15.2822 13.2679L15.3372 13.3775L15.4473 13.4872L15.5023 13.6518L15.5573 13.8163V14.0357V14.3099V14.5293L15.5023 14.6939L15.3923 14.8584L15.3372 14.9681L15.2272 15.0778L15.1171 15.1875L15.0071 15.2972L14.897 15.352L14.732 15.4617L14.6219 15.5166H14.4568L14.3468 15.5714H14.1817L14.0167 15.6263H13.9066H13.7966H13.5765H13.4114H13.3013H13.1363H13.0262L12.9162 15.5714H12.8061H12.6961H12.6411H12.531L12.476 15.5166H12.3659H12.3109L12.2559 15.4617H12.2009L12.0908 15.4069L12.3109 14.5293H12.3659H12.421L12.531 14.5842H12.586H12.6961L12.7511 14.639H12.8612H12.9712H13.0813L13.1913 14.6939H13.3013H13.4114H13.5765H13.6865H13.7966H13.9066L14.0167 14.639L14.0717 14.5842L14.1267 14.5293L14.1817 14.4745L14.2368 14.4196V14.3648V14.2551L14.2918 14.1454L14.2368 14.0357L14.1817 13.9809L14.0717 13.926L13.9066 13.8163L13.7966 13.7615L13.6315 13.7066L13.4664 13.6518L13.3013 13.5969L13.1363 13.4872L12.9712 13.3775L12.8612 13.2679L12.7511 13.1033L12.6961 12.8839L12.6411 12.6645V12.3903V12.2258L12.6961 12.1161L12.7511 11.9515V11.8418L12.8612 11.6773L12.9162 11.5676L13.0262 11.4579L13.1363 11.4031L13.2463 11.2934L13.3564 11.2385L13.5214 11.1837L13.6865 11.1288H13.8516L14.0717 11.074H14.2918H14.5669H14.6769H14.842H14.9521H15.1171H15.1722H15.2822H15.3923H15.4473L15.5023 11.1288H15.5573H15.6124H15.6674H15.7224H15.7774V11.1837H15.8324L15.6124 12.1161Z" fill="white"/>
<path d="M15.6124 12.1161H15.5573L15.5023 12.0612H15.4473H15.3923H15.3372H15.2822H15.2272H15.1722L15.1171 12.0064H15.0621H15.0071H14.897H14.787H14.732H14.6219L14.5119 12.0612H14.4018H14.3468H14.2368L14.1817 12.1161H14.1267L14.0717 12.1709L14.0167 12.2258V12.2806H13.9616V12.3355V12.3903V12.4451V12.5V12.5548L14.0167 12.6097L14.0717 12.6645L14.1267 12.7194L14.2368 12.8291L14.3468 12.8839H14.4568L14.6219 12.9388L14.732 12.9936L14.897 13.0485L15.0071 13.1033L15.1171 13.1582L15.2822 13.2679L15.3372 13.3775L15.4473 13.4872L15.5023 13.6518L15.5573 13.8163V14.0357V14.3099V14.5293L15.5023 14.6939L15.3923 14.8584L15.3372 14.9681L15.2272 15.0778L15.1171 15.1875L15.0071 15.2972L14.897 15.352L14.732 15.4617L14.6219 15.5166H14.4568L14.3468 15.5714H14.1817L14.0167 15.6263H13.9066H13.7966H13.5765H13.4114H13.3013H13.1363H13.0262L12.9162 15.5714H12.8061H12.6961H12.6411H12.531L12.476 15.5166H12.3659H12.3109L12.2559 15.4617H12.2009L12.0908 15.4069L12.3109 14.5293H12.3659H12.421L12.531 14.5842H12.586H12.6961L12.7511 14.639H12.8612H12.9712H13.0813L13.1913 14.6939H13.3013H13.4114H13.5765H13.6865H13.7966H13.9066L14.0167 14.639L14.0717 14.5842L14.1267 14.5293L14.1817 14.4745L14.2368 14.4196V14.3648V14.2551L14.2918 14.1454L14.2368 14.0357L14.1817 13.9809L14.0717 13.926L13.9066 13.8163L13.7966 13.7615L13.6315 13.7066L13.4664 13.6518L13.3013 13.5969L13.1363 13.4872L12.9712 13.3775L12.8612 13.2679L12.7511 13.1033L12.6961 12.8839L12.6411 12.6645V12.3903V12.2258L12.6961 12.1161L12.7511 11.9515V11.8418L12.8612 11.6773L12.9162 11.5676L13.0262 11.4579L13.1363 11.4031L13.2463 11.2934L13.3564 11.2385L13.5214 11.1837L13.6865 11.1288H13.8516L14.0717 11.074H14.2918H14.5669H14.6769H14.842H14.9521H15.1171H15.1722H15.2822H15.3923H15.4473L15.5023 11.1288H15.5573H15.6124H15.6674H15.7224H15.7774V11.1837H15.8324L15.6124 12.1161Z" stroke="white" stroke-width="0.216" stroke-miterlimit="2.6131"/>
<path fill-rule="evenodd" clip-rule="evenodd" d="M16.6029 10.1416H17.7585L17.5934 11.1288H18.3087L18.1436 12.0612H17.4283L16.9881 14.3648V14.4745L17.0431 14.5293V14.5842L17.0982 14.639H17.2082L17.2632 14.6939H17.3733H17.4833H17.5384H17.6484H17.7034H17.8135L17.8685 14.639H17.9235L17.7585 15.4069L17.7034 15.4617H17.6484V15.5166H17.5934H17.5384H17.4833L17.4283 15.5714H17.3733H17.3183H17.2632H17.2082H17.1532H17.0982H16.768H16.6029H16.4379H16.3278L16.2178 15.5166L16.1077 15.4617H15.9977L15.9427 15.4069L15.8876 15.352L15.8326 15.2972V15.1875V15.1326L15.7776 15.0778V14.9681V14.8584V14.8036L15.8326 14.6939L16.6029 10.1416Z" fill="white"/>
<path d="M16.6029 10.1416H17.7585L17.5934 11.1288H18.3087L18.1436 12.0612H17.4283L16.9881 14.3648V14.4745L17.0431 14.5293V14.5842L17.0982 14.639H17.2082L17.2632 14.6939H17.3733H17.4833H17.5384H17.6484H17.7034H17.8135L17.8685 14.639H17.9235L17.7585 15.4069L17.7034 15.4617H17.6484V15.5166H17.5934H17.5384H17.4833L17.4283 15.5714H17.3733H17.3183H17.2632H17.2082H17.1532H17.0982H16.768H16.6029H16.4379H16.3278L16.2178 15.5166L16.1077 15.4617H15.9977L15.9427 15.4069L15.8876 15.352L15.8326 15.2972V15.1875V15.1326L15.7776 15.0778V14.9681V14.8584V14.8036L15.8326 14.6939L16.6029 10.1416Z" stroke="white" stroke-width="0.216" stroke-miterlimit="2.6131"/>
<path d="M19.2441 13.6518L19.189 13.7066V13.8163V13.8712L19.2441 13.9809V14.0357L19.2991 14.0906L19.3541 14.2002L19.4091 14.2551L19.4642 14.3099L19.5192 14.3648L19.5742 14.4745L19.6292 14.5293H19.7393L19.7943 14.5842L19.9044 14.639H19.9594H20.0694H20.1795L20.2895 14.6939H20.3996H20.5096H20.6197H20.7297H20.8398L20.9498 14.639H21.0599L21.1699 14.5842H21.28L21.445 14.5293L21.5551 14.4745L21.6651 14.4196L21.7752 14.3648L21.6101 15.352L21.5551 15.4069H21.5001L21.39 15.4617H21.335L21.28 15.5166H21.2249H21.1699L21.0599 15.5714H21.0048H20.9498H20.8398H20.7297H20.6197H20.5096H20.3996H20.2345H20.0694H19.8493H19.6292L19.4091 15.5166L19.189 15.4069L19.024 15.352L18.8039 15.2423L18.6388 15.1326L18.4737 14.9681L18.3637 14.8036L18.2536 14.639L18.1436 14.4196L18.0335 14.1454V13.8712L17.9785 13.5969L18.0335 13.213V13.1033L18.0886 12.9388V12.7742L18.1436 12.6097L18.1986 12.4451L18.2536 12.2258L18.3637 12.0612L18.4737 11.8967L18.6388 11.7321L18.8039 11.5676L18.9689 11.4031L19.189 11.2934L19.4091 11.1837L19.6843 11.1288L20.0144 11.074H20.3445H20.5096H20.6747L20.8398 11.1288H21.0048L21.1699 11.1837L21.335 11.2934L21.5001 11.4031L21.6101 11.5128L21.7752 11.6224L21.8852 11.787L21.9402 12.0064L21.9953 12.2258L22.0503 12.4451V12.7742L21.9953 13.0485L21.9402 13.4324V13.6518H18.8589L19.079 12.8291H20.8948V12.7194V12.6645V12.5548V12.4451L20.8398 12.3903V12.3355L20.7847 12.2806L20.7297 12.2258L20.6747 12.1709L20.6197 12.1161L20.5646 12.0612H20.5096L20.4546 12.0064H20.3996H20.2895L20.2345 11.9515L20.1245 12.0064H20.0694H20.0144L19.9594 12.0612H19.8493L19.7943 12.1161L19.7393 12.1709L19.6843 12.2258L19.6292 12.2806L19.5742 12.3355L19.5192 12.3903V12.4451L19.4642 12.5548L19.4091 12.6097V12.7194V12.7742L19.2441 13.6518Z" stroke="white" stroke-width="0.216" stroke-miterlimit="2.6131"/>
<path fill-rule="evenodd" clip-rule="evenodd" d="M29.2035 11.403L29.1485 11.3482H29.0934L29.0384 11.2934H28.9284L28.8733 11.2385H28.8183L28.7633 11.1837H28.6532H28.5982L28.4882 11.1288H28.4332H28.3231H28.2681L28.158 11.074H28.048H27.9379H27.8279L27.7178 11.1288H27.6078H27.4977L27.3877 11.1837L27.2776 11.2385L27.1676 11.2934L27.0025 11.3482L26.8925 11.4579L26.7824 11.5676L26.7274 11.6773L26.6174 11.8418L26.5073 12.0064L26.3973 12.2258L26.3422 12.4451L26.2872 12.7194L26.2322 12.8839V12.9936V13.1582V13.3227V13.4324L26.2872 13.5969V13.7066L26.3422 13.8163L26.3973 13.926L26.5073 14.0357L26.5623 14.1454L26.6724 14.2551L26.7824 14.3099L26.9475 14.3648L27.0576 14.4196L27.2226 14.4745H27.2776H27.3327H27.4427L27.4977 14.5293H27.6078H27.6628H27.7729H27.8829L27.993 14.4745H28.103L28.2131 14.4196H28.3231L28.4332 14.3648L28.5432 14.3099L28.5982 14.2551L28.7083 14.1454L28.4882 15.2972L28.4332 15.352L28.3781 15.4069H28.3231L28.2681 15.4617H28.2131L28.158 15.5166H28.048L27.9379 15.5714H27.8279H27.6628H27.4977H27.3327H27.1126H26.8925H26.6724L26.5073 15.5166L26.2872 15.4617L26.1221 15.352L25.902 15.2972L25.737 15.1326L25.5719 15.0229L25.4068 14.8584L25.2968 14.639L25.1867 14.4196L25.0767 14.2002L24.9666 13.926L24.9116 13.6518V13.3775V13.0485L24.9666 12.7194L25.0217 12.5548V12.3903L25.0767 12.2258L25.1317 12.0612L25.1867 11.8967L25.2418 11.787L25.2968 11.6224L25.3518 11.5127L25.4068 11.3482L25.4619 11.2385L25.5169 11.1288L25.6269 11.0191L25.682 10.9094L25.792 10.7997L25.847 10.7449L25.9571 10.6352L26.0671 10.5255L26.1221 10.4706L26.2322 10.4158L26.3422 10.361L26.4523 10.2513L26.5623 10.1964H26.6724L26.7824 10.1416L26.9475 10.0867L27.0576 10.0319H27.2226L27.3327 9.97703H27.4977H27.6078L27.7729 9.92218H27.9379H28.048L28.2131 9.97703H28.3231H28.4332H28.5982L28.7083 10.0319H28.8183L28.8733 10.0867H28.9834L29.0934 10.1416H29.1485L29.2035 10.1964H29.2585H29.3135L29.3686 10.2513L29.2035 11.403Z" fill="white"/>
<path d="M29.2035 11.403L29.1485 11.3482H29.0934L29.0384 11.2934H28.9284L28.8733 11.2385H28.8183L28.7633 11.1837H28.6532H28.5982L28.4882 11.1288H28.4332H28.3231H28.2681L28.158 11.074H28.048H27.9379H27.8279L27.7178 11.1288H27.6078H27.4977L27.3877 11.1837L27.2776 11.2385L27.1676 11.2934L27.0025 11.3482L26.8925 11.4579L26.7824 11.5676L26.7274 11.6773L26.6174 11.8418L26.5073 12.0064L26.3973 12.2258L26.3422 12.4451L26.2872 12.7194L26.2322 12.8839V12.9936V13.1582V13.3227V13.4324L26.2872 13.5969V13.7066L26.3422 13.8163L26.3973 13.926L26.5073 14.0357L26.5623 14.1454L26.6724 14.2551L26.7824 14.3099L26.9475 14.3648L27.0576 14.4196L27.2226 14.4745H27.2776H27.3327H27.4427L27.4977 14.5293H27.6078H27.6628H27.7729H27.8829L27.993 14.4745H28.103L28.2131 14.4196H28.3231L28.4332 14.3648L28.5432 14.3099L28.5982 14.2551L28.7083 14.1454L28.4882 15.2972L28.4332 15.352L28.3781 15.4069H28.3231L28.2681 15.4617H28.2131L28.158 15.5166H28.048L27.9379 15.5714H27.8279H27.6628H27.4977H27.3327H27.1126H26.8925H26.6724L26.5073 15.5166L26.2872 15.4617L26.1221 15.352L25.902 15.2972L25.737 15.1326L25.5719 15.0229L25.4068 14.8584L25.2968 14.639L25.1867 14.4196L25.0767 14.2002L24.9666 13.926L24.9116 13.6518V13.3775V13.0485L24.9666 12.7194L25.0217 12.5548V12.3903L25.0767 12.2258L25.1317 12.0612L25.1867 11.8967L25.2418 11.787L25.2968 11.6224L25.3518 11.5127L25.4068 11.3482L25.4619 11.2385L25.5169 11.1288L25.6269 11.0191L25.682 10.9094L25.792 10.7997L25.847 10.7449L25.9571 10.6352L26.0671 10.5255L26.1221 10.4706L26.2322 10.4158L26.3422 10.361L26.4523 10.2513L26.5623 10.1964H26.6724L26.7824 10.1416L26.9475 10.0867L27.0576 10.0319H27.2226L27.3327 9.97703H27.4977H27.6078L27.7729 9.92218H27.9379H28.048L28.2131 9.97703H28.3231H28.4332H28.5982L28.7083 10.0319H28.8183L28.8733 10.0867H28.9834L29.0934 10.1416H29.1485L29.2035 10.1964H29.2585H29.3135L29.3686 10.2513L29.2035 11.403Z" stroke="white" stroke-width="0.216" stroke-miterlimit="2.6131"/>
<path fill-rule="evenodd" clip-rule="evenodd" d="M39.4378 15.5714H38.2823L38.3923 15.1326V15.0778L38.3373 15.1875L38.2272 15.2423L38.1722 15.2972L38.1172 15.352L38.0071 15.4069L37.9521 15.4617L37.8971 15.5166L37.787 15.5714H37.732L37.622 15.6263H37.567H37.4569H37.4019L37.2918 15.6811H37.2368H37.1268L36.9067 15.6263L36.7416 15.5714L36.5215 15.5166L36.3564 15.4069L36.2464 15.2972L36.0813 15.1875L35.9713 15.0229L35.8612 14.8584L35.8062 14.639L35.7512 14.4745L35.6961 14.2551L35.6411 14.0357V13.8163V13.5969V13.3775L35.6961 13.213L35.7512 12.9388L35.8612 12.7194L35.9162 12.5L36.0263 12.2806L36.1363 12.1161L36.2464 11.9515L36.4114 11.787L36.5215 11.6773L36.6866 11.5127L36.8516 11.4579L37.0167 11.3482L37.1268 11.2934L37.2918 11.1837H37.4569L37.677 11.1288H37.8421H37.9521L38.0622 11.1837H38.1722H38.2823L38.3923 11.2385L38.4473 11.2934L38.5574 11.3482H38.6124L38.6674 11.4031L38.7225 11.4579L38.7775 11.5127L38.8325 11.5676L38.8875 11.6224L38.9426 11.6773V11.7321L38.9976 11.787L39.2727 10.1416H40.4282L39.4378 15.5714Z" fill="white"/>
<path d="M39.4378 15.5714H38.2823L38.3923 15.1326V15.0778L38.3373 15.1875L38.2272 15.2423L38.1722 15.2972L38.1172 15.352L38.0071 15.4069L37.9521 15.4617L37.8971 15.5166L37.787 15.5714H37.732L37.622 15.6263H37.567H37.4569H37.4019L37.2918 15.6811H37.2368H37.1268L36.9067 15.6263L36.7416 15.5714L36.5215 15.5166L36.3564 15.4069L36.2464 15.2972L36.0813 15.1875L35.9713 15.0229L35.8612 14.8584L35.8062 14.639L35.7512 14.4745L35.6961 14.2551L35.6411 14.0357V13.8163V13.5969V13.3775L35.6961 13.213L35.7512 12.9388L35.8612 12.7194L35.9162 12.5L36.0263 12.2806L36.1363 12.1161L36.2464 11.9515L36.4114 11.787L36.5215 11.6773L36.6866 11.5127L36.8516 11.4579L37.0167 11.3482L37.1268 11.2934L37.2918 11.1837H37.4569L37.677 11.1288H37.8421H37.9521L38.0622 11.1837H38.1722H38.2823L38.3923 11.2385L38.4473 11.2934L38.5574 11.3482H38.6124L38.6674 11.4031L38.7225 11.4579L38.7775 11.5127L38.8325 11.5676L38.8875 11.6224L38.9426 11.6773V11.7321L38.9976 11.787L39.2727 10.1416H40.4282L39.4378 15.5714Z" stroke="white" stroke-width="0.216" stroke-miterlimit="2.6131"/>
<path fill-rule="evenodd" clip-rule="evenodd" d="M37.5669 14.5842H37.677H37.787L37.8971 14.5293L38.0071 14.4745L38.0621 14.4196L38.1722 14.3648L38.2272 14.3099L38.3373 14.2002L38.3923 14.1454L38.4473 14.0357L38.5023 13.9809L38.5574 13.8712V13.7615L38.6124 13.6518L38.6674 13.5421V13.4324V13.3227L38.7224 13.1582V13.0485L38.6674 12.9388V12.8291V12.7194L38.6124 12.6645V12.5548L38.5574 12.4451L38.5023 12.3903L38.4473 12.3354L38.3923 12.2806L38.3373 12.2258L38.2272 12.1709H38.1722L38.0621 12.1161L37.9521 12.1709H37.8421L37.787 12.2258H37.677L37.5669 12.2806L37.5119 12.3903L37.4569 12.4451L37.3468 12.5L37.2918 12.6097L37.2368 12.7194L37.1818 12.7742L37.1267 12.8839L37.0717 12.9936V13.1582L37.0167 13.2678V13.3775L36.9617 13.5421L37.0167 13.7615V13.9809L37.0717 14.1454L37.1818 14.3099L37.2918 14.4745L37.4019 14.5842H37.5669Z" fill="#FBB231"/>
<path fill-rule="evenodd" clip-rule="evenodd" d="M11.9258 14.6939L11.7607 15.5714H10.7153V15.4069L10.7703 15.2972V15.1326V15.0778L10.7153 15.1875L10.6602 15.2423L10.6052 15.2972L10.4952 15.352L10.3851 15.4069L10.2751 15.4617L10.165 15.5166L10.055 15.5714H9.94494L9.83489 15.6263H9.72484L9.55977 15.6811H9.44972H9.33967H9.22963L9.11958 15.6263H8.95451L8.84446 15.5714L8.73441 15.5166L8.62436 15.4617L8.51432 15.352L8.40427 15.2972L8.34924 15.2423L8.29422 15.1326L8.2392 15.0778V14.9681L8.18417 14.8584L8.12915 14.8036V14.6939V14.5842V14.4745V14.4196V14.2551V14.0906L8.18417 13.926L8.2392 13.8163L8.29422 13.6518L8.40427 13.5421L8.45929 13.4324L8.56934 13.3227L8.67939 13.213L8.78944 13.1582L8.89948 13.0485L9.06455 12.9936L9.1746 12.9388L9.33967 12.8839L9.44972 12.8291H9.61479H9.66982H9.72484H9.77987H9.83489L9.88991 12.7742H9.94494H9.99996H10.11H10.165H10.2201H10.3301H10.3851L10.4402 12.7194H10.4952H10.5502L10.6602 12.7742H10.7703H10.8803H10.9354H10.9904H11.0454V12.7194L11.1004 12.6645V12.5548V12.5V12.3903L11.0454 12.3355L10.9904 12.2258L10.9354 12.1709L10.8803 12.1161H10.7703L10.6602 12.0612H10.5502H10.4402H10.3301H10.165H10.055H9.88991H9.77987H9.66982L9.50475 12.1161H9.3947H9.28465L9.1746 12.1709H9.06455L8.95451 12.2258H8.89948L8.84446 12.2806H8.78944L9.06455 11.2934L9.1746 11.2385H9.28465L9.3947 11.1837H9.44972L9.55977 11.1288H9.66982H9.77987H9.88991L9.99996 11.074H10.165H10.2751H10.3851H10.5502H10.6602H10.8253H10.9354L11.1004 11.1288H11.2105H11.3205L11.4856 11.1837L11.5957 11.2385L11.7057 11.2934L11.8157 11.3482L11.9808 11.4579L12.0909 11.5128L12.1459 11.6224L12.2559 11.7321L12.311 11.8967L12.366 12.0064V12.1709V12.3355V12.5L11.9258 14.6939Z" fill="white"/>
<path d="M11.9258 14.6939L11.7607 15.5714H10.7153V15.4069L10.7703 15.2972V15.1326V15.0778L10.7153 15.1875L10.6602 15.2423L10.6052 15.2972L10.4952 15.352L10.3851 15.4069L10.2751 15.4617L10.165 15.5166L10.055 15.5714H9.94494L9.83489 15.6263H9.72484L9.55977 15.6811H9.44972H9.33967H9.22963L9.11958 15.6263H8.95451L8.84446 15.5714L8.73441 15.5166L8.62436 15.4617L8.51432 15.352L8.40427 15.2972L8.34924 15.2423L8.29422 15.1326L8.2392 15.0778V14.9681L8.18417 14.8584L8.12915 14.8036V14.6939V14.5842V14.4745V14.4196V14.2551V14.0906L8.18417 13.926L8.2392 13.8163L8.29422 13.6518L8.40427 13.5421L8.45929 13.4324L8.56934 13.3227L8.67939 13.213L8.78944 13.1582L8.89948 13.0485L9.06455 12.9936L9.1746 12.9388L9.33967 12.8839L9.44972 12.8291H9.61479H9.66982H9.72484H9.77987H9.83489L9.88991 12.7742H9.94494H9.99996H10.11H10.165H10.2201H10.3301H10.3851L10.4402 12.7194H10.4952H10.5502L10.6602 12.7742H10.7703H10.8803H10.9354H10.9904H11.0454V12.7194L11.1004 12.6645V12.5548V12.5V12.3903L11.0454 12.3355L10.9904 12.2258L10.9354 12.1709L10.8803 12.1161H10.7703L10.6602 12.0612H10.5502H10.4402H10.3301H10.165H10.055H9.88991H9.77987H9.66982L9.50475 12.1161H9.3947H9.28465L9.1746 12.1709H9.06455L8.95451 12.2258H8.89948L8.84446 12.2806H8.78944L9.06455 11.2934L9.1746 11.2385H9.28465L9.3947 11.1837H9.44972L9.55977 11.1288H9.66982H9.77987H9.88991L9.99996 11.074H10.165H10.2751H10.3851H10.5502H10.6602H10.8253H10.9354L11.1004 11.1288H11.2105H11.3205L11.4856 11.1837L11.5957 11.2385L11.7057 11.2934L11.8157 11.3482L11.9808 11.4579L12.0909 11.5128L12.1459 11.6224L12.2559 11.7321L12.311 11.8967L12.366 12.0064V12.1709V12.3355V12.5L11.9258 14.6939Z" stroke="white" stroke-width="0.216" stroke-miterlimit="2.6131"/>
<path fill-rule="evenodd" clip-rule="evenodd" d="M10.9354 13.5969V13.5421H10.8804H10.8254H10.7704L10.7153 13.4872H10.6603H10.6053L10.5503 13.5421H10.4402H10.3852H10.3302H10.2752H10.2201L10.1651 13.5969H10.1101H10.0551L10 13.6518H9.94501H9.88999L9.83497 13.7066H9.77994L9.72492 13.7615L9.66989 13.8163L9.61487 13.8712H9.55985L9.50482 13.926V13.9809L9.4498 14.0357V14.1454L9.39478 14.2003V14.3099L9.4498 14.4196L9.50482 14.5293L9.55985 14.5842L9.61487 14.639H9.66989L9.72492 14.6939H9.77994H9.94501L10.0551 14.639H10.1651H10.2201L10.3302 14.5842L10.3852 14.5293H10.4953L10.5503 14.4745L10.6053 14.4196L10.6603 14.3648V14.3099L10.7153 14.2551H10.7704V14.2003V14.1454L10.8254 14.0906V13.9809L10.8804 13.8163V13.7066L10.9354 13.5969Z" fill="#EC1C2E"/>
<path fill-rule="evenodd" clip-rule="evenodd" d="M3.12196 15.5714H2.02148L2.95689 10.1416H4.93775L5.10283 13.3775L6.47842 10.1416H8.51431L7.5789 15.5714H6.4234L7.13871 11.5127H7.08369L5.43297 15.5714H4.11239V15.4069V14.9681L4.05737 14.3099L4.00235 13.5969L3.94732 12.8291V12.1709L3.8923 11.7321V11.5127H3.83727L3.12196 15.5714Z" fill="white"/>
<path d="M3.12196 15.5714H2.02148L2.95689 10.1416H4.93775L5.10283 13.3775L6.47842 10.1416H8.51431L7.5789 15.5714H6.4234L7.13871 11.5127H7.08369L5.43297 15.5714H4.11239V15.4069V14.9681L4.05737 14.3099L4.00235 13.5969L3.94732 12.8291V12.1709L3.8923 11.7321V11.5127H3.83727L3.12196 15.5714Z" stroke="white" stroke-width="0.216" stroke-miterlimit="2.6131"/>
<path fill-rule="evenodd" clip-rule="evenodd" d="M32.6699 14.6939L32.5049 15.5714H31.4594V15.4069V15.2972V15.1875V15.1326L31.4044 15.1875L31.3494 15.2423L31.2393 15.2972L31.1843 15.352L31.0742 15.4069L30.9642 15.4617L30.9092 15.5166L30.7991 15.5714H30.6891L30.524 15.6263H30.414L30.3039 15.6811H30.1939H30.0838H29.9738L29.8637 15.6263H29.6987L29.5886 15.5714L29.4786 15.5166L29.3685 15.4617L29.2585 15.352L29.1484 15.2972L29.0934 15.2423L29.0384 15.1326L28.9833 15.0778V14.9681L28.9283 14.8584V14.8036L28.8733 14.6939V14.5842V14.4745V14.4196V14.2551L28.9283 14.0906V13.926L28.9833 13.8163L29.0384 13.6518L29.1484 13.5421L29.2034 13.4324L29.3135 13.3227L29.4235 13.213L29.5336 13.1582L29.6436 13.0485L29.8087 12.9936L29.9187 12.9388L30.0838 12.8839L30.1939 12.8291H30.3589H30.414H30.469H30.524L30.6341 12.7742H30.6891H30.7441H30.8542H30.9092H30.9642H31.0192H31.0742L31.1293 12.7194H31.1843H31.2943L31.4044 12.7742H31.5144H31.5695H31.6795H31.7345H31.7896V12.7194V12.6645L31.8446 12.5548V12.5L31.7896 12.3903V12.3355L31.7345 12.2258L31.6795 12.1709L31.5695 12.1161H31.5144L31.4044 12.0612H31.2943H31.1843H31.0742H30.9092H30.7991H30.6891H30.524H30.414L30.2489 12.1161H30.1388H30.0288L29.9187 12.1709H29.8087L29.6987 12.2258H29.6436L29.5886 12.2806H29.5336L29.8087 11.2934L29.9187 11.2385H30.0288L30.1388 11.1837H30.1939L30.3039 11.1288H30.414H30.524H30.6341L30.7441 11.074H30.9092H31.0192H31.1293H31.2393H31.4044H31.5144H31.6795L31.7896 11.1288H31.8996H32.0647L32.1747 11.1837L32.3398 11.2385L32.4498 11.2934L32.5599 11.3482L32.6699 11.4579L32.78 11.5128L32.89 11.6224L33.0001 11.7321L33.0551 11.8967V12.0064L33.1101 12.1709V12.3355V12.5L32.6699 14.6939Z" fill="white"/>
<path fill-rule="evenodd" clip-rule="evenodd" d="M32.5047 15.6263L32.6698 14.6939H32.6148L32.4497 15.5714H32.5047V15.6263Z" fill="white"/>
<path fill-rule="evenodd" clip-rule="evenodd" d="M31.4043 15.5714L31.4593 15.6263H32.5048V15.5714H31.4593H31.4043V15.6263H31.4593L31.4043 15.5714Z" fill="white"/>
<path fill-rule="evenodd" clip-rule="evenodd" d="M31.4593 15.1326V15.0778L31.4043 15.1875V15.2972V15.4069V15.5714H31.4593V15.4069V15.2972V15.1875V15.1326V15.0778V15.1326Z" fill="white"/>
<path fill-rule="evenodd" clip-rule="evenodd" d="M29.8635 15.6811H29.9736H30.0836H30.1937H30.3037H30.4138L30.5788 15.6263H30.6889L30.7989 15.5714L30.909 15.5166L31.019 15.4617H31.1291L31.1841 15.352L31.2941 15.2972L31.3492 15.2423L31.4042 15.1875L31.4592 15.1326V15.0778L31.4042 15.1875L31.2941 15.2423L31.2391 15.2972L31.1841 15.352L31.074 15.4069L30.964 15.4617H30.854L30.7989 15.5166L30.6889 15.5714H30.5238L30.4138 15.6263H30.3037H30.1937H30.0836H29.9736H29.8635V15.6811Z" fill="white"/>
<path fill-rule="evenodd" clip-rule="evenodd" d="M28.8184 14.4196V14.4745L28.8734 14.5842V14.6939V14.8035L28.9284 14.8584V14.9681L28.9834 15.0778L29.0385 15.1326L29.0935 15.2423L29.1485 15.2972L29.2586 15.4069L29.3136 15.4617L29.4236 15.5166L29.5887 15.5714L29.6987 15.6263L29.8638 15.6811V15.6263L29.6987 15.5714L29.5887 15.5166L29.4786 15.4617L29.3686 15.4069L29.2586 15.352L29.2035 15.2972L29.1485 15.1875L29.0935 15.1326L29.0385 15.0229L28.9834 14.9681L28.9284 14.8584V14.7487V14.6939V14.5842L28.8734 14.4745V14.4196H28.8184Z" fill="white"/>
<path fill-rule="evenodd" clip-rule="evenodd" d="M30.359 12.8291H30.194L30.0289 12.8839L29.9188 12.9388L29.7538 12.9936L29.6437 13.0485L29.5337 13.1033L29.4236 13.213L29.3136 13.3227L29.2035 13.4324L29.0935 13.5421L29.0385 13.6518L28.9834 13.8163L28.9284 13.926L28.8734 14.0905V14.2551L28.8184 14.4196H28.8734L28.9284 14.2551V14.0905L28.9834 13.926L29.0385 13.8163L29.0935 13.6518L29.1485 13.5421L29.2586 13.4324L29.3136 13.3227L29.4236 13.2678L29.5337 13.1582L29.6987 13.1033L29.8088 12.9936L29.9188 12.9388H30.0839L30.194 12.8839L30.359 12.8291Z" fill="white"/>
<path fill-rule="evenodd" clip-rule="evenodd" d="M31.1842 12.7194H31.1292H31.0742H31.0192H30.9642H30.9091H30.8541L30.7441 12.7742H30.689H30.634H30.524H30.4689H30.4139H30.3589V12.8291H30.4139H30.4689H30.524H30.634H30.689H30.7441L30.8541 12.7742H30.9091H30.9642H31.0192H31.0742H31.1292H31.1842V12.7194Z" fill="white"/>
<path fill-rule="evenodd" clip-rule="evenodd" d="M31.7896 12.7742V12.7194H31.7346H31.6795H31.5695H31.5145H31.4044H31.2944H31.1843V12.7742H31.2944H31.4044H31.5145H31.5695H31.6795H31.7346H31.7896Z" fill="white"/>
<path fill-rule="evenodd" clip-rule="evenodd" d="M31.7896 12.5V12.5548V12.6645V12.7194V12.7742L31.8446 12.7194V12.6645V12.5548V12.5H31.7896Z" fill="white"/>
<path fill-rule="evenodd" clip-rule="evenodd" d="M31.2944 12.0612L31.4045 12.116H31.5145L31.5695 12.1709L31.6246 12.2257L31.6796 12.2806L31.7346 12.3354L31.7896 12.3903V12.5H31.8447V12.3903L31.7896 12.3354L31.7346 12.2257L31.6796 12.1709L31.6246 12.116L31.5145 12.0612H31.4045L31.2944 12.0063V12.0612Z" fill="white"/>
<path fill-rule="evenodd" clip-rule="evenodd" d="M29.5334 12.2806V12.3354L29.5885 12.2806H29.6435L29.6985 12.2257H29.8086L29.9186 12.1709H30.0287H30.1387L30.2488 12.116H30.4138H30.5239L30.6889 12.0612H30.799H30.909H31.0741H31.1842H31.2942L31.1842 12.0063H31.0741H30.909H30.799L30.6889 12.0612H30.5239H30.4138H30.2488L30.1387 12.116H30.0287H29.9186L29.8086 12.1709H29.6985L29.6435 12.2257H29.5885L29.5334 12.2806H29.5885H29.5334Z" fill="white"/>
<path fill-rule="evenodd" clip-rule="evenodd" d="M29.8086 11.2385V11.2933L29.5334 12.2806H29.5885L29.8636 11.2933L29.8086 11.2385V11.2933V11.2385Z" fill="white"/>
<path fill-rule="evenodd" clip-rule="evenodd" d="M31.6794 11.074H31.5143H31.4043H31.2392H31.1292H31.0191H30.9091H30.744H30.634H30.5239L30.4139 11.1288H30.3038H30.1938L30.1387 11.1837H30.0287L29.9186 11.2385H29.8086L29.8636 11.2934H29.9186L30.0287 11.2385L30.1387 11.1837H30.1938H30.3038L30.4139 11.1288H30.5239H30.634H30.744H30.9091H31.0191H31.1292H31.2392H31.4043H31.5143H31.6794V11.074Z" fill="white"/>
<path fill-rule="evenodd" clip-rule="evenodd" d="M33.1101 12.5V12.3355V12.1709V12.0064L33.055 11.8418L33 11.7321L32.89 11.6224L32.8349 11.5128L32.7249 11.4031L32.5598 11.3482L32.4498 11.2934L32.3397 11.2385L32.1747 11.1837L32.0646 11.1288L31.9546 11.074H31.7895H31.6794V11.1288H31.7895H31.8995L32.0646 11.1837L32.1747 11.2385H32.2847L32.4498 11.3482L32.5598 11.4031L32.6699 11.4579L32.7799 11.5676L32.89 11.6773L32.945 11.787L33 11.8967L33.055 12.0064L33.1101 12.1709V12.3355L33.055 12.4451L33.1101 12.5Z" fill="white"/>
<path fill-rule="evenodd" clip-rule="evenodd" d="M32.67 14.6939L33.1102 12.5L33.0552 12.4451L32.615 14.6939H32.67Z" fill="white"/>
<path fill-rule="evenodd" clip-rule="evenodd" d="M31.6245 13.5969V13.5421H31.5694L31.5144 13.4872H31.4594H31.4044H31.2943L31.2393 13.5421H31.1843H31.1293H31.0742H31.0192H30.9642L30.9092 13.5969H30.8541H30.7991H30.7441L30.6891 13.6518H30.634L30.579 13.7066H30.524L30.469 13.7615H30.4139L30.3589 13.8163L30.3039 13.8712L30.2489 13.926V13.9809L30.1938 14.0357V14.1454V14.2003V14.3099V14.4196V14.5293L30.2489 14.5842L30.3589 14.639H30.4139L30.469 14.6939H30.524H30.6891L30.7991 14.639H30.9092L31.0192 14.5842H31.0742L31.1843 14.5293L31.2393 14.4745L31.2943 14.4196H31.3493L31.4044 14.3648L31.4594 14.3099L31.5144 14.2551V14.2003L31.5694 14.1454V14.0906V14.0357V13.926L31.6245 13.8163V13.7066V13.5969Z" fill="#FBB231"/>
<path fill-rule="evenodd" clip-rule="evenodd" d="M40.2632 15.023V14.9133V14.8036L40.3182 14.6939L40.4283 14.639L40.4833 14.5842L40.5933 14.5293L40.7034 14.4745H40.8134H40.9235L41.0335 14.5293L41.1436 14.5842L41.2536 14.639L41.3086 14.6939L41.3637 14.8036L41.4187 14.9133V15.023H41.3086V14.9681L41.2536 14.8584L41.1986 14.8036L41.1436 14.6939L41.0885 14.639L41.0335 14.5842H40.9235H40.8134H40.7584H40.6483L40.5383 14.639L40.4833 14.6939L40.4283 14.8036L40.3732 14.8584V14.9681V15.023H40.2632Z" fill="white"/>
<path fill-rule="evenodd" clip-rule="evenodd" d="M40.6484 15.0229V14.8036H40.8685H40.9236H40.9786H41.0336V14.8584V14.9133V14.9681V15.0229H40.8685H40.9236L40.9786 14.9681V14.9133V14.8584H40.9236H40.8685H40.7035V15.0229H40.6484Z" fill="white"/>
<path fill-rule="evenodd" clip-rule="evenodd" d="M40.2632 15.0229V15.0778V15.1875V15.2972L40.3182 15.4069L40.4283 15.4617L40.4833 15.5166L40.5933 15.5714L40.7034 15.6263H40.8134H40.9235L41.0335 15.5714L41.1436 15.5166L41.2536 15.4617L41.3086 15.4069L41.3637 15.2972L41.4187 15.1875V15.0778V15.0229H41.3086V15.0778V15.1326L41.2536 15.2423L41.1986 15.2972L41.1436 15.4069L41.0885 15.4617L41.0335 15.5166H40.9235H40.8134H40.7584H40.6483L40.5383 15.4617L40.4833 15.4069L40.4283 15.2972L40.3732 15.2423V15.1326V15.0778V15.0229H40.2632Z" fill="white"/>
<path fill-rule="evenodd" clip-rule="evenodd" d="M40.6484 15.0229V15.2972H40.7035V15.0778H40.8135L40.9786 15.2972H41.0336L40.9236 15.0778H40.9786L41.0336 15.0229H40.8685H40.8135H40.7035H40.6484Z" fill="white"/>
<path d="M40.2633 15.0778V14.9681L40.3183 14.8584L40.3733 14.7487L40.4283 14.639L40.5384 14.5842L40.6484 14.5293L40.7585 14.4745H40.8685H40.9786L41.0886 14.5293L41.1987 14.5842L41.3087 14.639L41.3638 14.7487L41.4188 14.8584L41.4738 14.9681V15.0778V15.1875L41.4188 15.2972L41.3638 15.4069L41.3087 15.5166L41.1987 15.5714L41.0886 15.6263H40.9236H40.8135H40.7035L40.5934 15.5714L40.4834 15.5166L40.3733 15.4617L40.3183 15.352L40.2633 15.2423L40.2083 15.1327L40.2633 15.0778ZM40.7035 15.2972H40.5934V14.8036H40.8135H40.8685H40.9236H40.9786H41.0336V14.8584V14.9133V14.9681V15.023H40.9786H40.9236L41.0336 15.2423H40.9236L40.8135 15.023H40.7035V15.2972ZM40.8135 15.023H40.8685V14.9681H40.7585V15.1327H40.8135V15.023ZM40.8135 15.5166H40.9236L41.0336 15.4617L41.0886 15.4069L41.1437 15.352L41.1987 15.2972L41.2537 15.2423V15.1327V15.023V14.9133V14.8036L41.1987 14.6939L41.1437 14.639L41.0886 14.5842H41.0336H40.9236H40.8135H40.7035H40.6484L40.5934 14.639L40.5384 14.6939L40.4834 14.7487L40.3733 14.8584V14.9681V15.0778V15.1875V15.2972L40.4283 15.352L40.4834 15.4069L40.5384 15.4617L40.5934 15.5166L40.7035 15.5714L40.8135 15.5166Z" stroke="white" stroke-width="0.216" stroke-miterlimit="2.6131"/>
<path fill-rule="evenodd" clip-rule="evenodd" d="M32.9451 15.5714H34.1556L34.5408 13.213L34.5958 13.1582V13.0485L34.6508 12.9388V12.8839L34.7058 12.7742L34.7609 12.6645L34.8159 12.6097L34.8709 12.5L34.9809 12.4451L35.036 12.3903L35.146 12.3355L35.2561 12.2806L35.3661 12.2258L35.4762 12.1709H35.6412H35.8063H35.8613H35.9164L36.0814 11.074L35.9714 11.1288H35.8613H35.7513L35.6412 11.1837H35.5862L35.4762 11.2385L35.4211 11.2934L35.3111 11.3482L35.2561 11.4031L35.201 11.4579L35.091 11.5128L35.036 11.5676L34.9809 11.6773L34.9259 11.7321L34.8709 11.787L34.8159 11.8967L34.9259 11.1288H33.7704L32.9451 15.5714Z" fill="white"/>
<path d="M32.9451 15.5714H34.1556L34.5408 13.213L34.5958 13.1582V13.0485L34.6508 12.9388V12.8839L34.7058 12.7742L34.7609 12.6645L34.8159 12.6097L34.8709 12.5L34.9809 12.4451L35.036 12.3903L35.146 12.3355L35.2561 12.2806L35.3661 12.2258L35.4762 12.1709H35.6412H35.8063H35.8613H35.9164L36.0814 11.074L35.9714 11.1288H35.8613H35.7513L35.6412 11.1837H35.5862L35.4762 11.2385L35.4211 11.2934L35.3111 11.3482L35.2561 11.4031L35.201 11.4579L35.091 11.5128L35.036 11.5676L34.9809 11.6773L34.9259 11.7321L34.8709 11.787L34.8159 11.8967L34.9259 11.1288H33.7704L32.9451 15.5714Z" stroke="white" stroke-width="0.216" stroke-miterlimit="2.6131"/>
<path fill-rule="evenodd" clip-rule="evenodd" d="M21.8853 15.5714H23.0958L23.4809 13.213L23.536 13.1582V13.0485V12.9388L23.591 12.8839L23.646 12.7742V12.7194L23.701 12.6645L23.7561 12.5548L23.8661 12.5L23.9211 12.4451L24.0312 12.3903L24.0862 12.3355H24.2513L24.3613 12.2806H24.5264L24.6364 12.2258H24.6915V12.2806H24.7465H24.8015V12.2258V12.1161L24.8565 12.0612V11.9515L24.9116 11.787V11.6773L24.9666 11.5676L25.0216 11.5128L25.0766 11.4031V11.3482L25.1317 11.2934L25.1867 11.1837L25.2417 11.1288H25.1867H25.1317L25.0766 11.074H25.0216L24.9116 11.1288H24.8015H24.6915L24.5814 11.1837H24.4714L24.4164 11.2385L24.3063 11.2934L24.2513 11.3482L24.1963 11.4031L24.0862 11.4579L24.0312 11.5128L23.9762 11.5676L23.9211 11.6224L23.8661 11.7321L23.8111 11.787L23.7561 11.8967L23.8661 11.1288H22.7106L21.8853 15.5714Z" fill="white"/>
<path d="M21.8853 15.5714H23.0958L23.4809 13.213L23.536 13.1582V13.0485V12.9388L23.591 12.8839L23.646 12.7742V12.7194L23.701 12.6645L23.7561 12.5548L23.8661 12.5L23.9211 12.4451L24.0312 12.3903L24.0862 12.3355H24.2513L24.3613 12.2806H24.5264L24.6364 12.2258H24.6915V12.2806H24.7465H24.8015V12.2258V12.1161L24.8565 12.0612V11.9515L24.9116 11.787V11.6773L24.9666 11.5676L25.0216 11.5128L25.0766 11.4031V11.3482L25.1317 11.2934L25.1867 11.1837L25.2417 11.1288H25.1867H25.1317L25.0766 11.074H25.0216L24.9116 11.1288H24.8015H24.6915L24.5814 11.1837H24.4714L24.4164 11.2385L24.3063 11.2934L24.2513 11.3482L24.1963 11.4031L24.0862 11.4579L24.0312 11.5128L23.9762 11.5676L23.9211 11.6224L23.8661 11.7321L23.8111 11.787L23.7561 11.8967L23.8661 11.1288H22.7106L21.8853 15.5714Z" stroke="white" stroke-width="0.216" stroke-miterlimit="2.6131"/>
<path fill-rule="evenodd" clip-rule="evenodd" d="M40.2632 19.9592V19.8495L40.3182 19.7398L40.4283 19.6849L40.4833 19.6301L40.5933 19.5752L40.7034 19.5204H40.8134H40.9235L41.0335 19.5752L41.1436 19.6301L41.2536 19.6849L41.3086 19.7398L41.3637 19.8495L41.4187 19.9592H41.3086L41.2536 19.9043L41.1986 19.7946L41.1436 19.7398L41.0885 19.6849L41.0335 19.6301H40.9235L40.8134 19.5752L40.7584 19.6301H40.6483L40.5383 19.6849L40.4833 19.7398L40.4283 19.7946L40.3732 19.9043V19.9592H40.2632Z" fill="#FBB231"/>
<path fill-rule="evenodd" clip-rule="evenodd" d="M40.6484 19.9591V19.8495H40.8685H40.9236H40.9786H41.0336V19.9043V19.9591H40.9786V19.9043H40.9236H40.8685H40.7035V19.9591H40.6484Z" fill="#FBB231"/>
<path fill-rule="evenodd" clip-rule="evenodd" d="M40.2632 20.0689V19.9592H40.3732V20.0689H40.2632Z" fill="#FBB231"/>
<path fill-rule="evenodd" clip-rule="evenodd" d="M40.6484 20.0689V19.9592H40.7035V20.0689H40.8135H40.8685H40.9236V20.014H40.9786V19.9592H41.0336V20.014V20.0689H40.6484Z" fill="#FBB231"/>
<path fill-rule="evenodd" clip-rule="evenodd" d="M41.3086 20.0689V19.9592H41.4186V20.0689H41.3086Z" fill="#FBB231"/>
<path fill-rule="evenodd" clip-rule="evenodd" d="M40.2632 20.0688V20.1785V20.2882L40.3182 20.3979L40.4283 20.5076L40.4833 20.5625L40.5933 20.6173L40.7034 20.6722H40.8134H40.9235L41.0335 20.6173L41.1436 20.5625L41.2536 20.5076L41.3086 20.3979L41.3637 20.2882L41.4187 20.1785V20.0688H41.3086V20.1785L41.2536 20.2882L41.1986 20.3431L41.1436 20.3979L41.0885 20.5076H41.0335L40.9235 20.5625H40.8134H40.7584L40.6483 20.5076H40.5383L40.4833 20.3979L40.4283 20.3431L40.3732 20.2882V20.1785V20.0688H40.2632Z" fill="#FBB231"/>
<path fill-rule="evenodd" clip-rule="evenodd" d="M40.6484 20.0688V20.2882H40.7035V20.1237H40.8135L40.9786 20.2882H41.0336L40.9236 20.1237L40.9786 20.0688H41.0336H40.6484Z" fill="#FBB231"/>
<path fill-rule="evenodd" clip-rule="evenodd" d="M22.0503 12.4451L21.9953 12.1709L21.9403 11.9515L21.8302 11.787L21.7202 11.6224L21.6102 11.4579L21.4451 11.3482L21.335 11.2934L21.17 11.2385L21.0049 11.1837L20.8398 11.1288L20.6747 11.074H20.5097H20.3446H20.0145L19.7393 11.1288L19.4642 11.1837L19.1891 11.2934L18.969 11.4031L18.8039 11.5676L18.6389 11.7321L18.5288 11.8967L18.3637 12.0612L18.2537 12.2258L18.1987 12.3903L18.1436 12.5548L18.0886 12.7194V12.9388V13.1033V13.213V13.5421V13.8712L18.1436 14.1454L18.1987 14.3648L18.3087 14.5842L18.4188 14.7487L18.5838 14.9133L18.7489 15.0778L18.914 15.1875L19.0791 15.2972L19.2991 15.352L19.5192 15.4069L19.7393 15.4617L19.9594 15.5166H20.1795H20.3996H20.5647H20.6747H20.7848H20.8948H21.0049H21.1149H21.225H21.28H21.335H21.3901H21.4451H21.5001H21.5551H21.6102L21.6652 15.4617L21.7202 15.4069L21.8853 14.3648L21.6652 14.4196L21.5551 14.4745L21.4451 14.5293L21.28 14.5842H21.17H21.0599H20.9499H20.8398H20.7298H20.6197H20.5097H20.3996H20.2896H20.1795H20.0695H19.9594H19.8494H19.7944L19.6843 14.5293L19.6293 14.4745L19.5743 14.4196L19.5192 14.3648L19.4642 14.3099L19.4092 14.2551L19.3542 14.2003L19.2991 14.1454L19.2441 14.0357L19.1891 13.9809V13.926V13.8712V13.8163V13.7615H21.8853V13.4872L21.9403 13.1582L21.9953 12.8291L22.0503 12.4451ZM20.8948 12.8291H19.3542V12.7742V12.6645V12.5548L19.4092 12.4451L19.4642 12.3903L19.5192 12.3355L19.5743 12.2806L19.6293 12.2258L19.6843 12.1709L19.7393 12.1161L19.7944 12.0612L19.8494 12.0064L19.9044 11.9515H19.9594H20.0145H20.0695H20.1245H20.1795H20.2346H20.2896H20.3446L20.3996 12.0064L20.4546 12.0612L20.5097 12.1161L20.5647 12.1709L20.6197 12.2258L20.6747 12.2806L20.7298 12.3355L20.7848 12.3903V12.5V12.6097V12.7194L20.8948 12.8291Z" fill="white"/>
</svg>
