<svg width="31" height="28" viewBox="0 0 31 28" fill="none" xmlns="http://www.w3.org/2000/svg">
<path fill-rule="evenodd" clip-rule="evenodd" d="M7.11231 21.3572C6.26313 20.5765 5.4425 19.749 4.63813 18.8204L3.92662 17.9351C2.38328 15.9851 0.93968 13.1346 0.738045 10.3903C0.669026 9.44765 0.714196 8.47616 0.888729 7.57841C0.912578 7.45434 0.940041 7.33222 0.969311 7.21127C0.982319 7.15587 0.994605 7.10008 1.00906 7.04584C1.05459 6.87378 1.1041 6.70446 1.16047 6.54098C1.35487 5.97798 1.56157 5.51136 1.82716 5.0537C2.12456 4.54143 2.34679 4.23086 2.6973 3.79037C2.77788 3.68971 2.86172 3.63743 2.94194 3.54028C3.49083 2.8778 4.29954 2.33899 5.03381 1.94298C5.18811 1.85949 5.35541 1.78458 5.52742 1.71396C5.57367 1.69523 5.62101 1.67689 5.66834 1.65856C5.81758 1.60198 5.97116 1.54892 6.12943 1.50132L6.21796 1.47323C6.40334 1.42017 6.59413 1.37452 6.78709 1.33434C6.8366 1.3238 6.88683 1.31483 6.93669 1.30546C7.0946 1.27542 7.25396 1.24967 7.41368 1.2286C7.79093 1.17827 8.16927 1.1494 8.53459 1.1494C8.75357 1.1494 8.96497 1.15916 9.1713 1.17437C9.25441 1.18022 9.33355 1.19076 9.41449 1.19934C9.54169 1.21261 9.66888 1.22626 9.79174 1.24538C9.8763 1.25826 9.9576 1.27464 10.04 1.29064C10.1538 1.3121 10.2669 1.33512 10.3768 1.36165C10.4581 1.38155 10.5376 1.40339 10.6171 1.42602C10.7226 1.45607 10.8267 1.48806 10.9286 1.52278C11.0052 1.54853 11.0807 1.57545 11.1548 1.60394C11.2556 1.64256 11.3539 1.68431 11.4511 1.72722C11.5212 1.75844 11.5913 1.78965 11.6596 1.82281C11.7575 1.87119 11.8529 1.92308 11.9476 1.97575C12.009 2.01048 12.0722 2.04364 12.1326 2.08032C12.2345 2.14235 12.3331 2.20907 12.4311 2.27618C12.4795 2.30934 12.5301 2.34055 12.5778 2.37528C12.7209 2.47984 12.8607 2.58908 12.9959 2.70535C13.1404 2.8302 13.2372 2.93593 13.3774 3.06429C13.5169 3.19148 13.6355 3.31477 13.754 3.46615C14.2682 4.1263 14.5536 4.52543 14.9602 5.32369L15.3613 6.10088C15.4191 6.22105 15.4382 6.2827 15.5268 6.35839C15.6522 5.94833 16.2589 4.7646 16.5252 4.35142C17.9099 2.20322 19.695 1.18179 22.4207 1.18179C23.9983 1.18179 25.6472 1.68002 26.8606 2.61873L27.6639 3.2937L28.3714 4.10952C28.7729 4.59488 29.2217 5.44737 29.4717 6.04782C29.5306 6.18984 29.5841 6.33459 29.634 6.4809C29.6506 6.52889 29.6647 6.57805 29.6802 6.62642C29.712 6.72591 29.7428 6.8258 29.7706 6.92685C29.7865 6.98537 29.8013 7.04428 29.8161 7.10359C29.8392 7.19644 29.8616 7.29008 29.8815 7.3845C29.8949 7.44692 29.9083 7.50935 29.9202 7.57217C30.3274 9.70749 29.9523 12.1023 29.1277 13.9945C28.8379 14.6598 28.6049 15.1553 28.2623 15.7413C28.0961 16.0253 27.9494 16.2649 27.769 16.5294L26.9614 17.678C26.857 17.8107 26.7728 17.902 26.6788 18.035C26.5047 18.2812 26.2824 18.5438 26.0967 18.7654C25.7693 19.1563 24.8667 20.1614 24.5508 20.4407L23.5727 21.404C22.8976 22.1484 20.1478 24.3821 19.3654 24.947C18.612 25.4917 17.8965 26.0406 17.1077 26.5525L15.5618 27.5704C15.5383 27.5833 15.5116 27.5892 15.482 27.5892C15.2872 27.5892 14.975 27.3379 14.7488 27.1947C14.5844 27.0905 14.4286 26.9895 14.2769 26.89C14.0694 26.7534 13.8725 26.6208 13.6803 26.4897L13.6091 26.4409C13.4179 26.3091 13.2318 26.1787 13.0464 26.0477C13.0067 26.02 12.9677 25.9919 12.9279 25.9642C12.7389 25.8299 12.5492 25.695 12.3541 25.5561C12.1488 25.4097 11.9393 25.2607 11.7163 25.1046C11.1999 24.7231 10.7183 24.3364 10.2442 23.9771C9.99916 23.7867 9.76283 23.5971 9.52434 23.4067L9.53121 20.6007C9.81668 20.6791 11.1804 21.5339 11.4131 21.6283L11.4037 18.8368C11.0915 18.6187 10.7464 18.4064 10.4516 18.2277C10.1318 18.0334 9.86365 17.8321 9.52976 17.6324C9.50808 17.218 9.52037 11.9595 9.59191 11.4016L13.4454 11.3871C13.462 11.0344 13.4725 8.72898 13.4725 8.72898C12.7379 8.72937 10.414 8.78009 9.722 8.78009C9.66093 8.78009 9.61251 8.7797 9.57927 8.77892L9.58794 7.87181L11.1396 7.86478C11.1421 7.3685 11.1537 6.48441 11.1833 5.1212L9.57746 5.13446L9.57927 3.58632L7.05558 3.62027L7.06533 5.17621C6.60967 5.18558 6.02897 5.21055 5.57186 5.21562C5.56644 6.08411 5.55885 6.91475 5.5809 7.777C5.6351 7.777 5.6893 7.777 5.74387 7.777C6.17713 7.777 6.62159 7.77778 7.05088 7.78129L7.05305 8.79726C5.83384 8.81286 4.615 8.85461 3.39507 8.87529C3.38785 9.74612 3.38279 10.5377 3.39254 11.4016L7.04546 11.4047C7.1105 12.2626 7.12568 15.1038 7.11014 16.0507C6.73939 15.8677 5.65064 15.1853 5.38902 15.0745L5.39191 17.9659L7.11231 19.0861V21.3572ZM17.9713 1.17164C17.6815 1.36711 17.4868 1.51849 17.2273 1.72957C16.6748 2.17942 16.0764 2.9016 15.6999 3.53716C15.6251 3.66357 15.5416 3.85202 15.4433 3.9636C15.1455 3.63704 14.8872 2.71042 13.3962 1.53644C13.0913 1.29571 12.8538 1.14355 12.4892 0.934816C12.366 0.864198 12.2388 0.798261 12.1091 0.736226C12.0657 0.715548 12.0202 0.697601 11.9761 0.677703C11.8879 0.638297 11.8005 0.598501 11.7102 0.562606C11.6563 0.541148 11.6003 0.52281 11.545 0.502912C11.4623 0.47287 11.3799 0.441658 11.2953 0.414347C11.235 0.394839 11.1728 0.378452 11.1118 0.360505C11.0301 0.336705 10.9488 0.311735 10.8653 0.290277C10.8014 0.27389 10.7356 0.260235 10.6702 0.245409C10.5885 0.226681 10.5072 0.207173 10.4241 0.190787C10.3565 0.177521 10.2879 0.166987 10.2192 0.155673C10.1376 0.141627 10.0559 0.127191 9.9735 0.115877C9.90304 0.105733 9.83221 0.0987097 9.76139 0.0905164C9.67936 0.0811526 9.59733 0.0710085 9.51495 0.0639857C9.44267 0.0577432 9.3704 0.0538417 9.29813 0.0495499C9.23779 0.0456484 9.17744 0.039796 9.11637 0.0370649C8.98267 0.0339436 8.84825 0.0308224 8.71383 0.0308224C8.31056 0.0308224 7.90584 0.0565727 7.50582 0.108073L7.41043 0.121729C7.27383 0.140847 7.13797 0.161915 7.00282 0.186885C6.94536 0.197419 6.88827 0.209514 6.83045 0.221219C6.71302 0.245019 6.59666 0.270769 6.48103 0.29925C6.4214 0.313686 6.36214 0.328512 6.30288 0.344118C6.18508 0.375721 6.06908 0.409665 5.95381 0.445949C5.90286 0.461946 5.85083 0.476772 5.80024 0.493548C5.63727 0.54817 5.47647 0.605914 5.32 0.669509C4.53044 0.990218 4.05093 1.33278 3.44205 1.76429C3.16164 1.96249 2.88557 2.2317 2.6543 2.45799C2.45917 2.64917 2.27705 2.84893 2.10432 3.05454C2.04759 3.12243 1.997 3.19382 1.9428 3.26288C1.8315 3.40412 1.72201 3.54614 1.62083 3.69284C1.56265 3.77789 1.50881 3.86528 1.45352 3.95229C1.3668 4.08923 1.28188 4.22735 1.20274 4.36859C1.15035 4.46262 1.10084 4.55742 1.05206 4.65301C0.980151 4.79386 0.911856 4.93587 0.847896 5.08023C0.804172 5.17816 0.761533 5.27648 0.721061 5.37597C0.661077 5.52423 0.606874 5.67444 0.554478 5.82621C0.52051 5.92414 0.485821 6.02129 0.455106 6.12078C0.404516 6.28504 0.361154 6.45163 0.319237 6.61901C0.296833 6.70719 0.271538 6.79458 0.251664 6.88393C0.201436 7.111 0.159519 7.34041 0.124468 7.57099L0.108207 7.66229C-0.247003 10.1651 0.285631 12.8471 1.51026 15.0698C2.21236 16.3441 2.64924 16.9488 3.39037 17.861C3.48107 17.973 3.56599 18.0767 3.65416 18.1837C3.68271 18.2184 3.71342 18.2558 3.74306 18.2913C3.82364 18.3893 3.90675 18.4899 3.99456 18.5972C5.00707 19.843 6.22916 21.063 7.50582 22.1988V21.7185L7.50149 18.859C6.87237 18.4587 6.30613 18.1571 5.69508 17.7627C5.65678 16.742 5.66581 16.4845 5.67882 15.7198C6.15183 15.9508 7.10978 16.5356 7.5004 16.7268L7.46897 11.0282C6.33938 11.0282 4.9142 11.0313 3.78425 11.0313C3.74848 10.3247 3.72788 9.86746 3.76943 9.20224L7.45957 9.17181L7.45198 7.43366L5.96899 7.42078C5.93574 6.82072 5.93683 6.34863 5.96357 5.6007L7.42958 5.5769L7.45776 4.00886L9.12974 4.02018L9.14926 5.56637L10.6897 5.58041L10.7049 7.43249L9.11963 7.43834L9.11926 9.17103L12.976 9.17493L13.002 11.0325L9.11926 11.0348L9.13155 17.799C9.23923 17.8739 10.9698 18.987 11.0001 19.0701L10.9947 20.9276C10.6135 20.7524 9.46291 20.0154 9.12215 19.9046L9.11637 23.084V23.5674C9.60131 23.9623 10.0848 24.3415 10.5585 24.7028C10.6651 24.7835 10.7811 24.8706 10.9018 24.9603L10.9817 25.0196C11.1027 25.1089 11.2281 25.201 11.36 25.2966C11.5298 25.4199 11.6545 25.5088 11.7817 25.5998L11.8735 25.6649C12.013 25.7644 12.155 25.8647 12.2992 25.9653L12.3823 26.0235C12.5095 26.1124 12.6381 26.2014 12.7668 26.2903L12.8564 26.352C13.0002 26.4511 13.144 26.5486 13.2871 26.6458C13.324 26.6707 13.3605 26.6949 13.397 26.7199C13.527 26.8077 13.6553 26.8935 13.7825 26.9778C13.9824 27.1104 14.1189 27.1998 14.2534 27.2868C14.6519 27.5443 14.9743 27.746 15.2478 27.9075C15.3508 27.9684 15.4039 28 15.4563 28C15.5535 28 15.6493 27.8919 16.0529 27.6559C17.1695 27.0024 18.9004 25.7808 19.9631 25.0071C20.4762 24.6333 20.9753 24.2596 21.4613 23.8671C22.6906 22.8745 23.7013 22.0345 24.8002 21.0037L25.6591 20.168C25.9045 19.8906 26.0862 19.7166 26.2955 19.4946L27.3755 18.2714C28.865 16.5208 30.1569 14.2466 30.6993 11.8674C31.0303 10.4145 31.0855 9.08871 30.8774 7.66697C30.8413 7.41922 30.8033 7.19957 30.7585 6.9764C30.6414 6.3935 30.3123 5.46142 30.0662 4.96241C29.9108 4.64794 29.772 4.37483 29.6047 4.10133C29.5184 3.9597 29.4371 3.83368 29.3362 3.69166C28.4686 2.46696 27.5172 1.61096 26.1936 0.911016C25.0694 0.316417 23.6558 0 22.2393 0C20.6988 0 19.1544 0.37377 17.9713 1.17164Z" fill="#E20613"/>
</svg>
